<svg width="380" height="930" viewBox="0 0 380 930" fill="none" xmlns="http://www.w3.org/2000/svg">
  <defs>
    <linearGradient id="bgGrad" x1="0%" y1="0%" x2="100%" y2="100%">
      <stop offset="0%" stop-color="#181c2e"/>
      <stop offset="40%" stop-color="#101424"/>
      <stop offset="100%" stop-color="#0a0c16"/>
    </linearGradient>

    <linearGradient id="goldBorder" x1="0%" y1="0%" x2="100%" y2="100%">
      <stop offset="0%" stop-color="#f59e0b"/>
      <stop offset="50%" stop-color="#d97706"/>
      <stop offset="100%" stop-color="#78350f"/>
    </linearGradient>

    <linearGradient id="cardGrad" x1="0%" y1="0%" x2="100%" y2="100%">
      <stop offset="0%" stop-color="#1f253d"/>
      <stop offset="100%" stop-color="#141829"/>
    </linearGradient>

    <linearGradient id="barGrad" x1="0%" y1="0%" x2="100%" y2="0%">
      <stop offset="0%" stop-color="#10b981"/>
      <stop offset="100%" stop-color="#34d399"/>
    </linearGradient>
  </defs>

  <style>
    .font-title { font-family: 'Segoe UI', Roboto, sans-serif; font-weight: 800; fill: #ffffff; }
    .font-sub { font-family: 'Segoe UI', Roboto, sans-serif; font-size: 11px; fill: #94a3b8; }
    .font-label { font-family: 'Segoe UI', Roboto, sans-serif; font-size: 9.5px; fill: #94a3b8; text-transform: uppercase; font-weight: 600; letter-spacing: 0.5px; }
    .font-val { font-family: 'Segoe UI', Roboto, sans-serif; font-size: 13.5px; font-weight: bold; fill: #f8fafc; }
    .font-sec { font-family: 'Segoe UI', Roboto, sans-serif; font-size: 10.5px; font-weight: bold; fill: #fbbf24; letter-spacing: 0.7px; text-transform: uppercase; }
    .font-list { font-family: 'Segoe UI', Roboto, sans-serif; font-size: 11px; fill: #cbd5e1; }
  </style>

  <!-- Outer Fantasy Frame -->
  <rect width="380" height="930" rx="16" fill="url(#bgGrad)" stroke="url(#goldBorder)" stroke-width="2"/>
  <path d="M 0 0 L 380 0 L 380 84 L 0 84 Z" fill="#13182b" opacity="0.8"/>
  <line x1="0" y1="84" x2="380" y2="84" stroke="url(#goldBorder)" stroke-width="1.5"/>

  <!-- ================= HERO BADGE (VECTOR CREST) ================= -->
  <rect x="18" y="16" width="52" height="52" rx="12" fill="#4c0519" stroke="#fb7185" stroke-width="2"/>
  <path d="M 33 28 L 55 50" stroke="#f8fafc" stroke-width="2.5" stroke-linecap="round"/>
  <path d="M 55 28 L 33 50" stroke="#f8fafc" stroke-width="2.5" stroke-linecap="round"/>
  <path d="M 30 25 L 36 31" stroke="#f59e0b" stroke-width="2.5" stroke-linecap="round"/>
  <path d="M 58 25 L 52 31" stroke="#f59e0b" stroke-width="2.5" stroke-linecap="round"/>
  <circle cx="44" cy="39" r="4.5" fill="#f59e0b" stroke="#78350f" stroke-width="1"/>

  <text x="80" y="38" class="font-title" font-size="16">🅂🅄🄱🄰🅁🅄</text>
  <text x="80" y="53" class="font-sub">Level 214 • <tspan fill="#fb7185" font-weight="bold">WARRIOR</tspan></text>
  <text x="80" y="68" font-size="9" fill="#f59e0b" font-weight="bold" letter-spacing="1px">★ ACTIVE CHAMPION ★</text>

  <!-- ================= COMBAT & EXPEDITION ================= -->
  <text x="18" y="104" class="font-sec">⚔️ COMBAT &amp; EXPEDITION LOG</text>

  <rect x="16" y="112" width="168" height="42" rx="8" fill="url(#cardGrad)" stroke="#2b354f" stroke-width="1"/>
  <text x="24" y="126" class="font-label">Total Dmg (All-Time)</text>
  <text x="24" y="144" class="font-val">⚔️ 2.3K</text>

  <rect x="196" y="112" width="168" height="42" rx="8" fill="url(#cardGrad)" stroke="#2b354f" stroke-width="1"/>
  <text x="204" y="126" class="font-label">Weekly Dmg (Reset Mon)</text>
  <text x="204" y="144" class="font-val">🗡️ 2.3K</text>

  <rect x="16" y="160" width="168" height="42" rx="8" fill="url(#cardGrad)" stroke="#2b354f" stroke-width="1"/>
  <text x="24" y="174" class="font-label">Daily Avg Dmg</text>
  <text x="24" y="192" class="font-val">📊 1.2K/day</text>

  <rect x="196" y="160" width="168" height="42" rx="8" fill="url(#cardGrad)" stroke="#2b354f" stroke-width="1"/>
  <text x="204" y="174" class="font-label">Peak Weekly Record</text>
  <text x="204" y="192" class="font-val">🔥 0</text>

  <rect x="16" y="208" width="168" height="42" rx="8" fill="url(#cardGrad)" stroke="#2b354f" stroke-width="1"/>
  <text x="24" y="222" class="font-label">Bosses Slain</text>
  <text x="24" y="240" class="font-val">🏆 0 Bosses</text>

  <rect x="196" y="208" width="168" height="42" rx="8" fill="url(#cardGrad)" stroke="#2b354f" stroke-width="1"/>
  <text x="204" y="222" class="font-label">Peak Gold Hoarded</text>
  <text x="204" y="240" class="font-val" fill="#fbbf24">💰 24.1K G</text>

  <rect x="16" y="256" width="348" height="34" rx="8" fill="url(#cardGrad)" stroke="#2b354f" stroke-width="1"/>
  <text x="24" y="277" class="font-sub">✨ Buffs: <tspan class="font-val">0</tspan> Casts  •  💧 Mana Spent: <tspan class="font-val">0 MP</tspan></text>

  <line x1="16" y1="302" x2="364" y2="302" stroke="#232a42" stroke-width="1"/>

  <!-- ================= PRODUCTIVITY MATRIX ================= -->
  <text x="18" y="322" class="font-sec">📋 PRODUCTIVITY &amp; DISCIPLINE</text>

  <text x="18" y="342" class="font-sub">Dailies Today: <tspan font-weight="bold" fill="#f8fafc">0/9 (0%)</tspan></text>
  <rect x="16" y="350" width="348" height="10" rx="5" fill="#141928"/>
  <rect x="16" y="350" width="0" height="10" rx="5" fill="url(#barGrad)"/>

  <rect x="16" y="368" width="348" height="32" rx="7" fill="url(#cardGrad)" stroke="#2b354f" stroke-width="1"/>
  <text x="24" y="388" class="font-sub">Habit Mastery: <tspan class="font-val">100% Positive</tspan> (0 👍 / 0 👎)</text>

  <rect x="16" y="406" width="82" height="42" rx="7" fill="url(#cardGrad)" stroke="#2b354f" stroke-width="1"/>
  <text x="22" y="420" class="font-label">Habits Today</text>
  <text x="22" y="438" class="font-val">✨ 0</text>

  <rect x="104" y="406" width="82" height="42" rx="7" fill="url(#cardGrad)" stroke="#2b354f" stroke-width="1"/>
  <text x="110" y="420" class="font-label">Dailies Today</text>
  <text x="110" y="438" class="font-val">📋 0</text>

  <rect x="194" y="406" width="82" height="42" rx="7" fill="url(#cardGrad)" stroke="#2b354f" stroke-width="1"/>
  <text x="200" y="420" class="font-label">To-Dos Today</text>
  <text x="200" y="438" class="font-val">🎯 0</text>

  <rect x="282" y="406" width="82" height="42" rx="7" fill="url(#cardGrad)" stroke="#2b354f" stroke-width="1"/>
  <text x="288" y="420" class="font-label">All Completed</text>
  <text x="288" y="438" class="font-val" fill="#fbbf24">⭐ 29</text>

  <rect x="16" y="454" width="168" height="42" rx="8" fill="url(#cardGrad)" stroke="#2b354f" stroke-width="1"/>
  <text x="24" y="468" class="font-label">Bounty Board</text>
  <text x="24" y="486" class="font-val">🎯 5 Open / 29 Done</text>

  <rect x="196" y="454" width="168" height="42" rx="8" fill="url(#cardGrad)" stroke="#2b354f" stroke-width="1"/>
  <text x="204" y="468" class="font-label">Discipline Flame</text>
  <text x="204" y="486" class="font-val">🔥 246 Days Streak</text>

  <rect x="16" y="504" width="348" height="88" rx="8" fill="url(#cardGrad)" stroke="#2b354f" stroke-width="1"/>
  <text x="26" y="522" class="font-sec">🔥 TOP 3 HABITS (MOST ACTIVE)</text>
  <text x="26" y="542" class="font-list">1. Ada kemajuan (+0)</text>
  <text x="26" y="560" class="font-list">2. Trading Forex (+0)</text>
  <text x="26" y="578" class="font-list">3. Deep thinking tanpa dist.. (+0)</text>

  <rect x="16" y="600" width="348" height="88" rx="8" fill="url(#cardGrad)" stroke="#2b354f" stroke-width="1"/>
  <text x="26" y="618" class="font-sec">🏆 TOP 3 DAILIES (WEEKLY CONSISTENCY)</text>
  <text x="26" y="638" class="font-list">1. -</text>
  <text x="26" y="656" class="font-list">2. -</text>
  <text x="26" y="674" class="font-list">3. -</text>

  <line x1="16" y1="700" x2="364" y2="700" stroke="#232a42" stroke-width="1"/>

  <!-- ================= SCROLL OF INSIGHT ================= -->
  <rect x="16" y="712" width="348" height="86" rx="8" fill="#131929" stroke="url(#goldBorder)" stroke-width="1.2"/>
  <text x="28" y="732" font-family="'Georgia', serif" font-size="10.5" font-weight="bold" fill="#facc15" letter-spacing="0.5px">📜 SCROLL OF INSIGHT</text>
  <text x="28" y="752" font-family="'Georgia', serif" font-size="11" font-style="italic" fill="#e2e8f0">
    <tspan x="28" dy="0">&quot;Konsistensi kecil setiap hari membangun</tspan>
    <tspan x="28" dy="16">benteng keberhasilan di masa depan.&quot;</tspan>
    <tspan x="28" dy="16"></tspan>
  </text>
</svg>