<svg width="920" height="2974" viewBox="0 0 460 1487" fill="none" xmlns="http://www.w3.org/2000/svg" xmlns:xlink="http://www.w3.org/1999/xlink">
  <defs>
    <clipPath id="rc"><rect width="460" height="1487" rx="18"/></clipPath>
    <linearGradient id="g1" x1="0%" y1="0%" x2="100%" y2="100%"><stop offset="0%" stop-color="#141724"/><stop offset="100%" stop-color="#07080f"/></linearGradient>
    <linearGradient id="gB" x1="0%" y1="0%" x2="100%" y2="100%"><stop offset="0%" stop-color="#f59e0b"/><stop offset="100%" stop-color="#78350f"/></linearGradient>
    <linearGradient id="gC" x1="0%" y1="0%" x2="100%" y2="100%"><stop offset="0%" stop-color="#24121b"/><stop offset="100%" stop-color="#180c13"/></linearGradient>
    <linearGradient id="gP" x1="0%" y1="0%" x2="100%" y2="100%"><stop offset="0%" stop-color="#12182b"/><stop offset="100%" stop-color="#0b101e"/></linearGradient>
    <linearGradient id="gH" x1="0%" y1="0%" x2="100%" y2="100%"><stop offset="0%" stop-color="#332010"/><stop offset="100%" stop-color="#1c1106"/></linearGradient>
    <linearGradient id="gD" x1="0%" y1="0%" x2="100%" y2="100%"><stop offset="0%" stop-color="#0a2c1e"/><stop offset="100%" stop-color="#051a12"/></linearGradient>
    <linearGradient id="gI" x1="0%" y1="0%" x2="100%" y2="100%"><stop offset="0%" stop-color="#3d2b0a"/><stop offset="100%" stop-color="#1c1405"/></linearGradient>
    <linearGradient id="gBar" x1="0%" y1="0%" x2="100%" y2="0%"><stop offset="0%" stop-color="#10b981"/><stop offset="100%" stop-color="#34d399"/></linearGradient>
    <linearGradient id="gT5H" x1="0%" y1="0%" x2="100%" y2="100%"><stop offset="0%" stop-color="#082629"/><stop offset="100%" stop-color="#051619"/></linearGradient>
    <linearGradient id="gT5V" x1="0%" y1="0%" x2="100%" y2="100%"><stop offset="0%" stop-color="#2a1145"/><stop offset="100%" stop-color="#170a28"/></linearGradient>
    <linearGradient id="gT5M" x1="0%" y1="0%" x2="100%" y2="100%"><stop offset="0%" stop-color="#1e1b4b"/><stop offset="100%" stop-color="#0f0d2e"/></linearGradient>
    <linearGradient id="gNeg" x1="0%" y1="0%" x2="100%" y2="100%"><stop offset="0%" stop-color="#2a0f14"/><stop offset="100%" stop-color="#180a0d"/></linearGradient>
    <linearGradient id="goldRing" x1="0%" y1="0%" x2="100%" y2="100%"><stop offset="0%" stop-color="#fde68a"/><stop offset="50%" stop-color="#f59e0b"/><stop offset="100%" stop-color="#92400e"/></linearGradient>
    <linearGradient id="gemGrad" x1="0%" y1="0%" x2="100%" y2="100%"><stop offset="0%" stop-color="#fde68a"/><stop offset="50%" stop-color="#f59e0b"/><stop offset="100%" stop-color="#b45309"/></linearGradient>
    <radialGradient id="logoBgGlow" cx="50%" cy="42%" r="72%"><stop offset="0%" stop-color="#1e4534"/><stop offset="45%" stop-color="#123024"/><stop offset="100%" stop-color="#061410"/></radialGradient>
    <radialGradient id="gemGlow" cx="50%" cy="32%" r="68%"><stop offset="0%" stop-color="#fff7d6"/><stop offset="35%" stop-color="#fde68a"/><stop offset="70%" stop-color="#f2b705"/><stop offset="100%" stop-color="#8a5a10"/></radialGradient>
    <linearGradient id="groundGrad" x1="0%" y1="0%" x2="0%" y2="100%"><stop offset="0%" stop-color="#2a1f14" stop-opacity="0"/><stop offset="45%" stop-color="#2a1f14" stop-opacity="0.9"/><stop offset="100%" stop-color="#120d09" stop-opacity="1"/></linearGradient>
    <filter id="goldGlow" x="-60%" y="-60%" width="220%" height="220%">
      <feGaussianBlur stdDeviation="3.2" result="blur"/>
      <feMerge><feMergeNode in="blur"/><feMergeNode in="SourceGraphic"/></feMerge>
    </filter>
  </defs>
  <style>
    .t { font-family: sans-serif; font-weight: 900; fill: #fff; }
    .s { font-family: sans-serif; font-size: 11.5px; fill: #94a3b8; }
    .l { font-family: sans-serif; font-size: 9.5px; fill: #94a3b8; font-weight: 600; letter-spacing: 0.5px; }
    .v { font-family: sans-serif; font-size: 14px; font-weight: bold; fill: #f8fafc; }
    .list { font-family: sans-serif; font-size: 11.5px; fill: #cbd5e1; }
  </style>
  <g clip-path="url(#rc)">
    <rect width="460" height="1487" fill="url(#g1)"/>
    <g transform="translate(145,458) scale(0.6974117482115867)" opacity="0.045"><polygon points="25,0 0,35 50,35" fill="#94a3b8"/><polygon points="25,15 0,50 50,50" fill="#94a3b8"/></g><g transform="translate(4,298) scale(0.9106371459956542)" opacity="0.045"><polygon points="25,0 0,35 50,35" fill="#94a3b8"/><polygon points="25,15 0,50 50,50" fill="#94a3b8"/></g><g transform="translate(28,898) scale(0.7913940029516775)" opacity="0.045"><polygon points="25,0 0,35 50,35" fill="#94a3b8"/><polygon points="25,15 0,50 50,50" fill="#94a3b8"/></g><g transform="translate(239,589) scale(0.5187478292209924)" opacity="0.045"><polygon points="25,0 0,35 50,35" fill="#94a3b8"/><polygon points="25,15 0,50 50,50" fill="#94a3b8"/></g><g transform="translate(202,1006) scale(0.5349277117873095)" opacity="0.045"><polygon points="25,0 0,35 50,35" fill="#94a3b8"/><polygon points="25,15 0,50 50,50" fill="#94a3b8"/></g><g transform="translate(26,1278) scale(0.712259594571257)" opacity="0.045"><polygon points="25,0 0,35 50,35" fill="#94a3b8"/><polygon points="25,15 0,50 50,50" fill="#94a3b8"/></g><g transform="translate(403,1308) scale(0.5619009805748227)" opacity="0.045"><polygon points="25,0 0,35 50,35" fill="#94a3b8"/><polygon points="25,15 0,50 50,50" fill="#94a3b8"/></g><g transform="translate(94,1441) scale(0.8137166112027947)" opacity="0.045"><polygon points="25,0 0,35 50,35" fill="#94a3b8"/><polygon points="25,15 0,50 50,50" fill="#94a3b8"/></g><g transform="translate(11,1331) scale(0.7927707113201934)" opacity="0.045"><polygon points="25,0 0,35 50,35" fill="#94a3b8"/><polygon points="25,15 0,50 50,50" fill="#94a3b8"/></g><g transform="translate(5,602) scale(0.5232913403088781)" opacity="0.045"><polygon points="25,0 0,35 50,35" fill="#94a3b8"/><polygon points="25,15 0,50 50,50" fill="#94a3b8"/></g><g transform="translate(419,422) scale(0.6448046431658381)" opacity="0.045"><polygon points="25,0 0,35 50,35" fill="#94a3b8"/><polygon points="25,15 0,50 50,50" fill="#94a3b8"/></g><g transform="translate(53,1257) scale(0.5588961190391841)" opacity="0.045"><polygon points="25,0 0,35 50,35" fill="#94a3b8"/><polygon points="25,15 0,50 50,50" fill="#94a3b8"/></g><g transform="translate(137,1297) scale(0.9080631795600157)" opacity="0.045"><polygon points="25,0 0,35 50,35" fill="#94a3b8"/><polygon points="25,15 0,50 50,50" fill="#94a3b8"/></g><g transform="translate(72,361) scale(0.7908000818312331)" opacity="0.045"><polygon points="25,0 0,35 50,35" fill="#94a3b8"/><polygon points="25,15 0,50 50,50" fill="#94a3b8"/></g><g transform="translate(307,534) scale(0.6861987713628657)" opacity="0.045"><polygon points="25,0 0,35 50,35" fill="#94a3b8"/><polygon points="25,15 0,50 50,50" fill="#94a3b8"/></g><g transform="translate(260,278) scale(0.7821841465666933)" opacity="0.045"><polygon points="25,0 0,35 50,35" fill="#94a3b8"/><polygon points="25,15 0,50 50,50" fill="#94a3b8"/></g><g transform="translate(296,571) scale(0.7482072475567458)" opacity="0.045"><polygon points="25,0 0,35 50,35" fill="#94a3b8"/><polygon points="25,15 0,50 50,50" fill="#94a3b8"/></g><g transform="translate(252,1025) scale(0.8886143874904036)" opacity="0.045"><polygon points="25,0 0,35 50,35" fill="#94a3b8"/><polygon points="25,15 0,50 50,50" fill="#94a3b8"/></g><g transform="translate(218,1349) scale(0.9617206918194308)" opacity="0.045"><polygon points="25,0 0,35 50,35" fill="#94a3b8"/><polygon points="25,15 0,50 50,50" fill="#94a3b8"/></g><g transform="translate(165,763) scale(0.6242132924287747)" opacity="0.045"><polygon points="25,0 0,35 50,35" fill="#94a3b8"/><polygon points="25,15 0,50 50,50" fill="#94a3b8"/></g><g transform="translate(72,649) scale(0.5409275053978849)" opacity="0.045"><polygon points="25,0 0,35 50,35" fill="#94a3b8"/><polygon points="25,15 0,50 50,50" fill="#94a3b8"/></g><g transform="translate(133,1225) scale(0.7475581797776278)" opacity="0.045"><polygon points="25,0 0,35 50,35" fill="#94a3b8"/><polygon points="25,15 0,50 50,50" fill="#94a3b8"/></g><g transform="translate(155,1069) scale(0.6439688824450933)" opacity="0.045"><polygon points="25,0 0,35 50,35" fill="#94a3b8"/><polygon points="25,15 0,50 50,50" fill="#94a3b8"/></g><g transform="translate(17,391) scale(0.7559664153237746)" opacity="0.045"><polygon points="25,0 0,35 50,35" fill="#94a3b8"/><polygon points="25,15 0,50 50,50" fill="#94a3b8"/></g>

    <rect x="0" y="0" width="460" height="140" fill="#0f172a"/>
    <circle cx="89" cy="58" r="1.427720309061081" fill="#fef9e7" opacity="0.7492499672225963"/><circle cx="250" cy="112" r="0.8592172174726834" fill="#fef9e7" opacity="0.8359483470101354"/><circle cx="418" cy="70" r="0.8202975556708945" fill="#fef9e7" opacity="0.690151556803517"/><circle cx="408" cy="5" r="0.6169456187282205" fill="#fef9e7" opacity="0.9130279725190205"/><circle cx="224" cy="13" r="0.7739065271057279" fill="#fef9e7" opacity="0.8132261099497898"/><circle cx="124" cy="93" r="0.6508024999814264" fill="#fef9e7" opacity="0.9486586648781237"/><circle cx="383" cy="103" r="1.6500474250921822" fill="#fef9e7" opacity="0.7387395489440273"/><circle cx="22" cy="47" r="1.248179228581956" fill="#fef9e7" opacity="0.7816534728832198"/><circle cx="337" cy="125" r="1.0421359690119996" fill="#fef9e7" opacity="0.4851471812096385"/><circle cx="423" cy="16" r="0.7498525214965304" fill="#fef9e7" opacity="0.9103691247161644"/><circle cx="237" cy="25" r="1.2624034499686188" fill="#fef9e7" opacity="0.5886067831571309"/><circle cx="253" cy="24" r="0.8242905169586071" fill="#fef9e7" opacity="0.4204267543440171"/><circle cx="448" cy="109" r="0.8818393445726336" fill="#fef9e7" opacity="0.829142642457467"/><circle cx="111" cy="91" r="1.7625227970145367" fill="#fef9e7" opacity="0.8916812066875218"/><circle cx="391" cy="102" r="1.6768712602326188" fill="#fef9e7" opacity="0.943850532556821"/><circle cx="41" cy="20" r="1.272147582259703" fill="#fef9e7" opacity="0.7074184257899221"/><circle cx="203" cy="30" r="1.0094773643300006" fill="#fef9e7" opacity="0.4803831103306848"/><circle cx="279" cy="57" r="0.9503847542275834" fill="#fef9e7" opacity="0.924979589866302"/><circle cx="261" cy="54" r="0.9815422206655984" fill="#fef9e7" opacity="0.6664488566117458"/><circle cx="141" cy="8" r="1.6009447672360766" fill="#fef9e7" opacity="0.4874190531294861"/><circle cx="371" cy="68" r="0.6033983900386655" fill="#fef9e7" opacity="0.4385641496832445"/><circle cx="311" cy="100" r="1.2266074081245035" fill="#fef9e7" opacity="0.7143351341403705"/><circle cx="168" cy="76" r="1.775994154417122" fill="#fef9e7" opacity="0.4619902994436961"/><circle cx="347" cy="26" r="1.3517964841265138" fill="#fef9e7" opacity="0.8585122288010305"/><circle cx="175" cy="49" r="1.514222543810933" fill="#fef9e7" opacity="0.9113370062309329"/><circle cx="130" cy="18" r="0.8024308925775642" fill="#fef9e7" opacity="0.9077213752830975"/><circle cx="94" cy="104" r="1.114458385481318" fill="#fef9e7" opacity="0.4879367919701597"/><circle cx="23" cy="91" r="1.2235953560355095" fill="#fef9e7" opacity="0.761889132313833"/><circle cx="128" cy="57" r="1.7013405649880435" fill="#fef9e7" opacity="0.48969741298844194"/><circle cx="384" cy="80" r="0.617115326671329" fill="#fef9e7" opacity="0.5906351999938602"/>
    <rect x="0" y="90" width="460" height="50" fill="url(#groundGrad)"/>
    <g transform="translate(297, 68.6) scale(0.77)" opacity="0.65"><polygon points="25,0 0,35 50,35" fill="#0d7a58"/><polygon points="25,15 0,50 50,50" fill="#0a6b4d"/><polygon points="25,30 0,65 50,65" fill="#085c42"/><rect x="21" y="65" width="8" height="15" fill="#3f2c22"/></g><g transform="translate(41, 38.1) scale(1.14)" opacity="0.91"><polygon points="25,0 0,35 50,35" fill="#0d7a58"/><polygon points="25,15 0,50 50,50" fill="#0a6b4d"/><polygon points="25,30 0,65 50,65" fill="#085c42"/><rect x="21" y="65" width="8" height="15" fill="#3f2c22"/></g><g transform="translate(14, 39.9) scale(1.05)" opacity="0.59"><polygon points="25,0 0,35 50,35" fill="#0d7a58"/><polygon points="25,15 0,50 50,50" fill="#0a6b4d"/><polygon points="25,30 0,65 50,65" fill="#085c42"/><rect x="21" y="65" width="8" height="15" fill="#3f2c22"/></g><g transform="translate(89, 44.0) scale(1.00)" opacity="0.63"><polygon points="25,0 0,35 50,35" fill="#0d7a58"/><polygon points="25,15 0,50 50,50" fill="#0a6b4d"/><polygon points="25,30 0,65 50,65" fill="#085c42"/><rect x="21" y="65" width="8" height="15" fill="#3f2c22"/></g><g transform="translate(302, 37.7) scale(1.12)" opacity="0.73"><polygon points="25,0 0,35 50,35" fill="#0d7a58"/><polygon points="25,15 0,50 50,50" fill="#0a6b4d"/><polygon points="25,30 0,65 50,65" fill="#085c42"/><rect x="21" y="65" width="8" height="15" fill="#3f2c22"/></g><g transform="translate(112, 29.2) scale(1.19)" opacity="0.87"><polygon points="25,0 0,35 50,35" fill="#0d7a58"/><polygon points="25,15 0,50 50,50" fill="#0a6b4d"/><polygon points="25,30 0,65 50,65" fill="#085c42"/><rect x="21" y="65" width="8" height="15" fill="#3f2c22"/></g><g transform="translate(327, 49.9) scale(0.95)" opacity="0.64"><polygon points="25,0 0,35 50,35" fill="#0d7a58"/><polygon points="25,15 0,50 50,50" fill="#0a6b4d"/><polygon points="25,30 0,65 50,65" fill="#085c42"/><rect x="21" y="65" width="8" height="15" fill="#3f2c22"/></g><g transform="translate(360, 52.6) scale(0.90)" opacity="0.59"><polygon points="25,0 0,35 50,35" fill="#0d7a58"/><polygon points="25,15 0,50 50,50" fill="#0a6b4d"/><polygon points="25,30 0,65 50,65" fill="#085c42"/><rect x="21" y="65" width="8" height="15" fill="#3f2c22"/></g><g transform="translate(403, 53.6) scale(0.91)" opacity="0.57"><polygon points="25,0 0,35 50,35" fill="#0d7a58"/><polygon points="25,15 0,50 50,50" fill="#0a6b4d"/><polygon points="25,30 0,65 50,65" fill="#085c42"/><rect x="21" y="65" width="8" height="15" fill="#3f2c22"/></g><g transform="translate(205, 50.0) scale(1.02)" opacity="0.70"><polygon points="25,0 0,35 50,35" fill="#0d7a58"/><polygon points="25,15 0,50 50,50" fill="#0a6b4d"/><polygon points="25,30 0,65 50,65" fill="#085c42"/><rect x="21" y="65" width="8" height="15" fill="#3f2c22"/></g><g transform="translate(252, 59.0) scale(0.88)" opacity="0.90"><polygon points="25,0 0,35 50,35" fill="#0d7a58"/><polygon points="25,15 0,50 50,50" fill="#0a6b4d"/><polygon points="25,30 0,65 50,65" fill="#085c42"/><rect x="21" y="65" width="8" height="15" fill="#3f2c22"/></g><g transform="translate(155, 45.9) scale(1.05)" opacity="0.57"><polygon points="25,0 0,35 50,35" fill="#0d7a58"/><polygon points="25,15 0,50 50,50" fill="#0a6b4d"/><polygon points="25,30 0,65 50,65" fill="#085c42"/><rect x="21" y="65" width="8" height="15" fill="#3f2c22"/></g><g transform="translate(86, 38.8) scale(1.16)" opacity="0.89"><polygon points="25,0 0,35 50,35" fill="#0d7a58"/><polygon points="25,15 0,50 50,50" fill="#0a6b4d"/><polygon points="25,30 0,65 50,65" fill="#085c42"/><rect x="21" y="65" width="8" height="15" fill="#3f2c22"/></g><g transform="translate(413, 65.4) scale(0.76)" opacity="0.80"><polygon points="25,0 0,35 50,35" fill="#0d7a58"/><polygon points="25,15 0,50 50,50" fill="#0a6b4d"/><polygon points="25,30 0,65 50,65" fill="#085c42"/><rect x="21" y="65" width="8" height="15" fill="#3f2c22"/></g><g transform="translate(156, 63.0) scale(0.80)" opacity="0.82"><polygon points="25,0 0,35 50,35" fill="#0d7a58"/><polygon points="25,15 0,50 50,50" fill="#0a6b4d"/><polygon points="25,30 0,65 50,65" fill="#085c42"/><rect x="21" y="65" width="8" height="15" fill="#3f2c22"/></g><g transform="translate(329, 28.2) scale(1.26)" opacity="0.79"><polygon points="25,0 0,35 50,35" fill="#0d7a58"/><polygon points="25,15 0,50 50,50" fill="#0a6b4d"/><polygon points="25,30 0,65 50,65" fill="#085c42"/><rect x="21" y="65" width="8" height="15" fill="#3f2c22"/></g>
    <g transform="translate(268,129) scale(0.90)"><ellipse cx="0" cy="0" rx="9" ry="5" fill="#57534e" stroke="#3f3a36" stroke-width="1"/><ellipse cx="-3" cy="-2" rx="3" ry="1.6" fill="#78716c" opacity="0.6"/></g><g transform="translate(340,129) scale(0.82)"><ellipse cx="0" cy="0" rx="9" ry="5" fill="#57534e" stroke="#3f3a36" stroke-width="1"/><ellipse cx="-3" cy="-2" rx="3" ry="1.6" fill="#78716c" opacity="0.6"/></g><g transform="translate(404,132) scale(0.98)"><ellipse cx="0" cy="0" rx="9" ry="5" fill="#57534e" stroke="#3f3a36" stroke-width="1"/><ellipse cx="-3" cy="-2" rx="3" ry="1.6" fill="#78716c" opacity="0.6"/></g>
    <polygon points="290,140 292,133.8 294,140" fill="#15803d" opacity="0.59"/><polygon points="428,140 430,133.1 432,140" fill="#15803d" opacity="0.76"/><polygon points="454,140 456,131.3 458,140" fill="#15803d" opacity="0.71"/><polygon points="331,140 333,128.7 335,140" fill="#15803d" opacity="0.88"/><polygon points="162,140 164,128.2 166,140" fill="#15803d" opacity="0.71"/><polygon points="225,140 227,133.0 229,140" fill="#15803d" opacity="0.77"/><polygon points="34,140 36,132.9 38,140" fill="#15803d" opacity="0.62"/><polygon points="252,140 254,128.7 256,140" fill="#15803d" opacity="0.80"/><polygon points="438,140 440,129.8 442,140" fill="#15803d" opacity="0.67"/><polygon points="431,140 433,133.0 435,140" fill="#15803d" opacity="0.63"/><polygon points="389,140 391,130.2 393,140" fill="#15803d" opacity="0.55"/><polygon points="26,140 28,132.8 30,140" fill="#15803d" opacity="0.86"/><polygon points="107,140 109,128.1 111,140" fill="#15803d" opacity="0.53"/><polygon points="185,140 187,134.1 189,140" fill="#15803d" opacity="0.63"/><polygon points="122,140 124,131.4 126,140" fill="#15803d" opacity="0.63"/><polygon points="179,140 181,131.3 183,140" fill="#15803d" opacity="0.62"/><polygon points="199,140 201,132.3 203,140" fill="#15803d" opacity="0.77"/><polygon points="448,140 450,134.8 452,140" fill="#15803d" opacity="0.85"/><polygon points="380,140 382,130.2 384,140" fill="#15803d" opacity="0.84"/><polygon points="30,140 32,134.0 34,140" fill="#15803d" opacity="0.55"/><polygon points="160,140 162,135.0 164,140" fill="#15803d" opacity="0.66"/><polygon points="176,140 178,133.6 180,140" fill="#15803d" opacity="0.58"/><polygon points="332,140 334,132.3 336,140" fill="#15803d" opacity="0.74"/><polygon points="402,140 404,132.5 406,140" fill="#15803d" opacity="0.72"/><polygon points="400,140 402,129.0 404,140" fill="#15803d" opacity="0.69"/><polygon points="2,140 4,131.6 6,140" fill="#15803d" opacity="0.65"/><polygon points="397,140 399,132.5 401,140" fill="#15803d" opacity="0.77"/><polygon points="122,140 124,134.9 126,140" fill="#15803d" opacity="0.72"/><polygon points="225,140 227,129.9 229,140" fill="#15803d" opacity="0.85"/><polygon points="429,140 431,130.1 433,140" fill="#15803d" opacity="0.57"/><polygon points="251,140 253,129.9 255,140" fill="#15803d" opacity="0.69"/><polygon points="351,140 353,134.4 355,140" fill="#15803d" opacity="0.74"/><polygon points="371,140 373,133.0 375,140" fill="#15803d" opacity="0.61"/><polygon points="257,140 259,132.2 261,140" fill="#15803d" opacity="0.69"/><polygon points="316,140 318,128.3 320,140" fill="#15803d" opacity="0.69"/><polygon points="8,140 10,129.7 12,140" fill="#15803d" opacity="0.63"/><polygon points="164,140 166,133.8 168,140" fill="#15803d" opacity="0.88"/><polygon points="362,140 364,132.8 366,140" fill="#15803d" opacity="0.88"/><polygon points="317,140 319,133.8 321,140" fill="#15803d" opacity="0.79"/><polygon points="179,140 181,129.2 183,140" fill="#15803d" opacity="0.67"/><polygon points="412,140 414,132.7 416,140" fill="#15803d" opacity="0.76"/><polygon points="186,140 188,129.7 190,140" fill="#15803d" opacity="0.73"/><polygon points="259,140 261,134.8 263,140" fill="#15803d" opacity="0.80"/><polygon points="456,140 458,130.0 460,140" fill="#15803d" opacity="0.59"/><polygon points="45,140 47,129.4 49,140" fill="#15803d" opacity="0.84"/>
    <rect width="460" height="140" fill="#0b0e18" opacity="0.22"/>
    <line x1="0" y1="140" x2="460" y2="140" stroke="url(#gB)" stroke-width="1.5"/>

    
<rect x="14" y="20" width="100" height="100" rx="22" fill="url(#logoBgGlow)" stroke="url(#goldRing)" stroke-width="3"/>
<rect x="21" y="27" width="86" height="86" rx="17" fill="none" stroke="#f5d78e" stroke-width="1" opacity="0.35"/>
<circle cx="64" cy="66" r="34" fill="#f2b705" opacity="0.14"/>
<g filter="url(#goldGlow)">
<path d="M64 36 L86 66 L64 96 L42 66 Z" fill="#fbbf24" opacity="0.5"/>
</g>
<path d="M64 36 L86 66 L64 96 L42 66 Z" fill="url(#gemGlow)" stroke="#78350f" stroke-width="2"/>
<path d="M64 36 L86 66 L64 66 Z" fill="#fff7d6" opacity="0.5"/>
<circle cx="64" cy="60" r="7" fill="#fffbe8" opacity="0.9"/>
<path d="M64 22 L67 31 L76 33 L67 35 L64 44 L61 35 L52 33 L61 31 Z" fill="#fde68a"/>
<path d="M40 92 L42 97 L47 99 L42 101 L40 106 L38 101 L33 99 L38 97 Z" fill="#f5d78e" opacity="0.85"/>
<path d="M87 46 L89 51 L94 53 L89 55 L87 60 L85 55 L80 53 L85 51 Z" fill="#fff7d6" opacity="0.9"/>
<path d="M45 82 L46.5 85.5 L50 87 L46.5 88.5 L45 92 L43.5 88.5 L40 87 L43.5 85.5 Z" fill="#fde68a" opacity="0.85"/>


    <text x="128" y="38" font-family="sans-serif" font-size="9" font-weight="700" letter-spacing="1.5" fill="#d4a72c" opacity="0.85">PLAYER IDENTIFICATION</text>
    <text x="128" y="70" class="t" font-size="22">SUBARU</text>
    <text x="128" y="90" class="s">Level 219 • <tspan fill="#fb7185">WARRIOR</tspan></text>

    <g transform="translate(128, 100) scale(0.75)" opacity="1.0"><path d="M4 20L18 6M8 20L18 10" stroke="#fb7185" stroke-width="2.2" stroke-linecap="round"/><path d="M15 3L21 9L18 12L12 6Z" fill="#fb7185"/></g>
    <g transform="translate(156, 100) scale(0.75)" opacity="0.2"><path d="M12 2L14 9L21 11L14 13L12 20L10 13L3 11L10 9Z" fill="#60a5fa"/></g>
    <g transform="translate(184, 100) scale(0.75)" opacity="0.2"><path d="M4 20L16 8M16 8L14 4L20 6L16 8Z" fill="#f59e0b" stroke="#f59e0b" stroke-linejoin="round"/></g>
    <g transform="translate(212, 100) scale(0.75)" opacity="0.2"><path d="M12 21C12 21 4 14.5 4 9.5C4 6.5 6.5 4 9.5 4C11 4 12 5 12 5C12 5 13 4 14.5 4C17.5 4 20 6.5 20 9.5C20 14.5 12 21 12 21Z" fill="#34d399"/></g>

    <text x="18" y="162" font-family="sans-serif" font-size="11" fill="#fb7185" font-weight="bold">COMBAT &amp; EXPEDITION LOG</text>
    <rect x="16" y="172" width="208" height="46" rx="8" fill="url(#gC)" stroke="#4c1d2c"/><text x="26" y="188" class="l">TOTAL DMG</text><g transform="translate(26, 193) scale(0.8)"><path d="M4 20L20 4M8 20L20 8" stroke="#fb7185" stroke-width="2.5" stroke-linecap="round"/></g><text x="50" y="207" class="v">20.5K</text>
    <rect x="236" y="172" width="208" height="46" rx="8" fill="url(#gC)" stroke="#4c1d2c"/><text x="246" y="188" class="l">WEEKLY DMG</text><g transform="translate(246, 193) scale(0.8)"><path d="M4 20L20 4M8 20L20 8" stroke="#fb7185" stroke-width="2.5" stroke-linecap="round"/></g><text x="270" y="207" class="v">4.9K</text>
    <rect x="16" y="226" width="208" height="46" rx="8" fill="url(#gC)" stroke="#4c1d2c"/><text x="26" y="242" class="l">DAILY AVG DMG</text><g transform="translate(26, 247) scale(0.8)"><path d="M18 20V10M12 20V4M6 20V14" stroke="#60a5fa" stroke-width="2.5" stroke-linecap="round"/></g><text x="50" y="261" class="v">980/day</text>
    <rect x="236" y="226" width="208" height="46" rx="8" fill="url(#gC)" stroke="#4c1d2c"/><text x="246" y="242" class="l">PEAK DAILY RECORD</text><g transform="translate(246, 247) scale(0.8)"><path d="M12 22C12 22 5 15 5 10C5 6 8 2 12 2C12 2 10 6 10 10C10 12 12 14 12 14C12 14 15 11 15 8C17 10 19 13 19 16C19 19.5 16 22 12 22Z" fill="#f59e0b"/></g><text x="270" y="261" class="v">7.0K</text>
    <rect x="16" y="280" width="208" height="46" rx="8" fill="url(#gC)" stroke="#4c1d2c"/><text x="26" y="296" class="l">BOSSES SLAIN</text><g transform="translate(26, 301) scale(0.8)"><path d="M4 6H20M5 6V11C5 14.8 8.1 18 12 18C15.9 18 19 14.8 19 11V6M8 18V22M16 18V22M6 22H18" stroke="#facc15" stroke-width="2" stroke-linecap="round" fill="none"/></g><text x="50" y="315" class="v">14</text>
    <rect x="236" y="280" width="208" height="46" rx="8" fill="url(#gC)" stroke="#4c1d2c"/><text x="246" y="296" class="l">PEAK GOLD HOARDED</text><g transform="translate(246, 301) scale(0.8)"><circle cx="12" cy="12" r="8" fill="#f59e0b"/><text x="12" y="16" font-size="11" fill="#141724" text-anchor="middle" font-weight="bold" font-family="sans-serif">G</text></g><text x="270" y="315" class="v" fill="#fbbf24">39.5K G</text>
    <rect x="16" y="334" width="428" height="36" rx="8" fill="url(#gC)" stroke="#4c1d2c"/>
    <g transform="translate(26, 344) scale(0.7)"><path d="M12 2L14 9L21 11L14 13L12 20L10 13L3 11L10 9Z" fill="#facc15"/></g><text x="42" y="357" class="s">Buffs: <tspan class="v">30</tspan> Casts</text>
    <g transform="translate(190, 344) scale(0.7)"><path d="M12 2C12 2 5 11 5 15.5C5 19.6 8.1 22 12 22C15.9 22 19 19.6 19 15.5C19 11 12 2 12 2Z" fill="#60a5fa"/></g><text x="206" y="357" class="s">Mana Spent: <tspan class="v">734 MP</tspan></text>

    <text x="18" y="404" font-family="sans-serif" font-size="11" fill="#60a5fa" font-weight="bold">PRODUCTIVITY &amp; DISCIPLINE MATRIX</text>
    <text x="18" y="424" class="s">Dailies Today: <tspan class="v">9/9 (100%)</tspan></text>
    <rect x="16" y="432" width="428" height="11" rx="5.5" fill="#151b2e"/><rect x="16" y="432" width="428" height="11" rx="5.5" fill="url(#gBar)"/>
    <rect x="16" y="451" width="428" height="34" rx="7" fill="url(#gP)" stroke="#1e293b"/>
    <g transform="translate(26, 460) scale(0.7)"><path d="M2 21H6V10H2V21ZM9 21H17C17.8 21 18.5 20.4 18.7 19.6L21 12.4C21.3 11.4 20.5 10.5 19.5 10.5H14.4L15 6.5C15.1 5.7 14.5 5 13.7 5C13.3 5 12.9 5.2 12.6 5.5L8.3 10.3C8.1 10.5 8 10.8 8 11.1V19.5C8 20.3 8.7 21 9 21Z" fill="#22c55e"/></g><text x="42" y="472" class="s">Habit Mastery: <tspan class="v">95% Positive</tspan></text>
    <g transform="translate(280, 460) scale(0.7)"><path d="M2 21H6V10H2V21ZM9 21H17C17.8 21 18.5 20.4 18.7 19.6L21 12.4C21.3 11.4 20.5 10.5 19.5 10.5H14.4L15 6.5C15.1 5.7 14.5 5 13.7 5C13.3 5 12.9 5.2 12.6 5.5L8.3 10.3C8.1 10.5 8 10.8 8 11.1V19.5C8 20.3 8.7 21 9 21Z" fill="#22c55e"/></g><text x="296" y="472" class="s">22</text>
    <g transform="translate(330, 460) scale(0.7)"><path d="M22 3H18V14H22V3ZM15 3H7C6.2 3 5.5 3.6 5.3 4.4L3 11.6C2.7 12.6 3.5 13.5 4.5 13.5H9.6L9 17.5C8.9 18.3 9.5 19 10.3 19C10.7 19 11.1 18.8 11.4 18.5L15.7 13.7C15.9 13.5 16 13.2 16 12.9V4.5C16 3.7 15.3 3 15 3Z" fill="#ef4444"/></g><text x="346" y="472" class="s">1</text>

    <rect x="16" y="493" width="101" height="46" rx="7" fill="#1f1610" stroke="#b45309"/><text x="22" y="509" class="l">HABITS TODAY</text><g transform="translate(22, 513) scale(0.75)"><path d="M12 2L14 9L21 11L14 13L12 20L10 13L3 11L10 9Z" fill="#b45309"/></g><text x="44" y="528" class="v">0</text>
    <rect x="125" y="493" width="101" height="46" rx="7" fill="#0d1f18" stroke="#059669"/><text x="131" y="509" class="l">DAILIES TODAY</text><g transform="translate(131, 513) scale(0.75)"><path d="M5 12L10 17L19 7" stroke="#059669" stroke-width="2.5" stroke-linecap="round" fill="none"/></g><text x="153" y="528" class="v">9</text>
    <rect x="234" y="493" width="101" height="46" rx="7" fill="#0f1f33" stroke="#0284c7"/><text x="240" y="509" class="l">TO-DOS TODAY</text><g transform="translate(240, 513) scale(0.75)"><circle cx="12" cy="12" r="8" stroke="#0284c7" stroke-width="2" fill="none"/><circle cx="12" cy="12" r="3" fill="#0284c7"/></g><text x="262" y="528" class="v">0</text>
    <rect x="343" y="493" width="101" height="46" rx="7" fill="#241b0b" stroke="#ca8a04"/><text x="349" y="509" class="l">ALL COMPLETED</text><g transform="translate(349, 513) scale(0.75)"><path d="M12 2L15 9L22 9L16 14L18 21L12 17L6 21L8 14L2 9L9 9Z" fill="#ca8a04"/></g><text x="371" y="528" class="v" fill="#fbbf24">61</text>

    <rect x="16" y="547" width="101" height="46" rx="7" fill="#0d2818" stroke="#16a34a"/><text x="22" y="563" class="l">HABITS POSITIF</text><g transform="translate(22, 567) scale(0.7)"><path d="M2 21H6V10H2V21ZM9 21H17C17.8 21 18.5 20.4 18.7 19.6L21 12.4C21.3 11.4 20.5 10.5 19.5 10.5H14.4L15 6.5C15.1 5.7 14.5 5 13.7 5C13.3 5 12.9 5.2 12.6 5.5L8.3 10.3C8.1 10.5 8 10.8 8 11.1V19.5C8 20.3 8.7 21 9 21Z" fill="#22c55e"/></g><text x="40" y="581" class="v">22</text>
    <rect x="125" y="547" width="101" height="46" rx="7" fill="#2a0f14" stroke="#dc2626"/><text x="131" y="563" class="l">HABITS NEGATIF</text><g transform="translate(131, 567) scale(0.7)"><path d="M22 3H18V14H22V3ZM15 3H7C6.2 3 5.5 3.6 5.3 4.4L3 11.6C2.7 12.6 3.5 13.5 4.5 13.5H9.6L9 17.5C8.9 18.3 9.5 19 10.3 19C10.7 19 11.1 18.8 11.4 18.5L15.7 13.7C15.9 13.5 16 13.2 16 12.9V4.5C16 3.7 15.3 3 15 3Z" fill="#ef4444"/></g><text x="149" y="581" class="v">1</text>
    <rect x="234" y="547" width="101" height="46" rx="7" fill="#2a1608" stroke="#ea580c"/><text x="240" y="563" class="l">DAILIES GAGAL</text><g transform="translate(240, 567) scale(0.75)"><path d="M6 6L18 18M6 18L18 6" stroke="#ef4444" stroke-width="2.5" stroke-linecap="round"/></g><text x="260" y="581" class="v">0</text>
    <rect x="343" y="547" width="101" height="46" rx="7" fill="#170f33" stroke="#7c3aed"/><text x="349" y="563" class="l">TODO BELUM</text><g transform="translate(349, 567) scale(0.7)"><rect x="5" y="4" width="14" height="17" rx="2" stroke="#a78bfa" stroke-width="2" fill="none"/><path d="M9 2H15V6H9V2Z" fill="#a78bfa"/></g><text x="367" y="581" class="v">4</text>

    <rect x="16" y="601" width="208" height="46" rx="8" fill="url(#gP)" stroke="#1e293b"/><text x="26" y="617" class="l">BOUNTY BOARD</text><g transform="translate(26, 622) scale(0.8)"><circle cx="12" cy="12" r="8" stroke="#0284c7" stroke-width="2" fill="none"/><circle cx="12" cy="12" r="3" fill="#0284c7"/></g><text x="50" y="636" class="v">4 Open / 30 Done</text>
    <rect x="236" y="601" width="208" height="46" rx="8" fill="url(#gP)" stroke="#1e293b"/><text x="246" y="617" class="l">DISCIPLINE FLAME</text><g transform="translate(246, 622) scale(0.8)"><path d="M12 22C12 22 5 15 5 10C5 6 8 2 12 2C12 2 10 6 10 10C10 12 12 14 12 14C12 14 15 11 15 8C17 10 19 13 19 16C19 19.5 16 22 12 22Z" fill="#f59e0b"/></g><text x="270" y="636" class="v">249 Days Streak</text>

    <rect x="16" y="655" width="208" height="46" rx="8" fill="url(#gP)" stroke="#1e293b"/><text x="26" y="671" class="l">IDLE HABITS (WEEKLY)</text><g transform="translate(26, 676) scale(0.8)"><path d="M20 14.5A8.5 8.5 0 1 1 9.5 4a6.5 6.5 0 0 0 10.5 10.5Z" fill="#94a3b8"/></g><text x="50" y="690" class="v">13</text>
    <rect x="236" y="655" width="208" height="46" rx="8" fill="url(#gP)" stroke="#1e293b"/><text x="246" y="671" class="l">IDLE HABITS (TODAY)</text><g transform="translate(246, 676) scale(0.8)"><path d="M20 14.5A8.5 8.5 0 1 1 9.5 4a6.5 6.5 0 0 0 10.5 10.5Z" fill="#94a3b8"/></g><text x="270" y="690" class="v">27</text>

    <rect x="16" y="709" width="208" height="140" rx="8" fill="url(#gT5H)" stroke="#06b6d4"/><text x="28" y="729" font-family="sans-serif" font-size="10.5" font-weight="bold" fill="#22d3ee">TOP 5 HABITS (HARI INI)</text>
    <rect x="236" y="709" width="208" height="140" rx="8" fill="url(#gT5V)" stroke="#a855f7"/><text x="248" y="729" font-family="sans-serif" font-size="10.5" font-weight="bold" fill="#c084fc">TOP 5 (3 HARI TERAKHIR)</text><text x="248" y="750" class="list">1. Ketepatan Waktu… (+5)</text><text x="248" y="768" class="list">2. Olahraga / gerak (+4)</text><text x="248" y="786" class="list">3. Ada kemajuan (+2)</text><text x="248" y="804" class="list">4. Sholat sunah har… (+2)</text><text x="248" y="822" class="list">5. Kurangi Makanan  (+1)</text>

    <rect x="16" y="857" width="428" height="130" rx="8" fill="url(#gH)" stroke="#f59e0b"/><text x="28" y="877" font-family="sans-serif" font-size="11" font-weight="bold" fill="#fbbf24">TOP 5 HABITS (MINGGUAN)</text><text x="28" y="898" class="list">1. Ketepatan Waktu Sholat. (+5)</text><text x="28" y="916" class="list">2. Olahraga / gerak (+4)</text><text x="28" y="934" class="list">3. Ada kemajuan (+2)</text><text x="28" y="952" class="list">4. Sholat sunah harian  (+2)</text><text x="28" y="970" class="list">5. Kurangi Makanan  (+1)</text>
    <rect x="16" y="995" width="428" height="130" rx="8" fill="url(#gD)" stroke="#10b981"/><text x="28" y="1015" font-family="sans-serif" font-size="11" font-weight="bold" fill="#34d399">TOP 5 DAILIES (MINGGUAN)</text><text x="28" y="1036" class="list">1. Drink water in the morning  (1x)</text><text x="28" y="1054" class="list">2. Menunda Kesenangan  (1x)</text><text x="28" y="1072" class="list">3. 10 Menit tanpa Short  (1x)</text><text x="28" y="1090" class="list">4. Tanpa sosmed 2 jam (1x)</text><text x="28" y="1108" class="list">5. Tanpa YouTube 2 jam (1x)</text>
    <rect x="16" y="1133" width="428" height="92" rx="8" fill="url(#gNeg)" stroke="#dc2626"/><text x="28" y="1153" font-family="sans-serif" font-size="11" font-weight="bold" fill="#f87171">TOP 3 HABITS NEGATIF (MINGGUAN)</text><text x="28" y="1174" class="list">1. Trading Forex (-1)</text>
    <rect x="16" y="1233" width="428" height="130" rx="8" fill="url(#gT5M)" stroke="#6366f1"/><text x="28" y="1253" font-family="sans-serif" font-size="11" font-weight="bold" fill="#818cf8">TOP 5 HABITS (BULANAN)</text><text x="28" y="1274" class="list">1. Ketepatan Waktu Sholat. (+5)</text><text x="28" y="1292" class="list">2. Ada kemajuan (+2)</text><text x="28" y="1310" class="list">3. Sholat sunah harian  (+2)</text><text x="28" y="1328" class="list">4. Kurangi Makanan  (+1)</text><text x="28" y="1346" class="list">5. Deep thinking tanpa distraks (+1)</text>

    <rect x="16" y="1379" width="428" height="88" rx="9" fill="url(#gI)" stroke="url(#gB)"/>
    <text x="28" y="1402" font-family="sans-serif" font-size="11" font-weight="bold" fill="#facc15">SCROLL OF INSIGHT</text>
    <text x="28" y="1424" font-family="Georgia, serif" font-size="12" font-style="italic" fill="#e2e8f0"><tspan x="28" dy="0">&quot;Konsistensi kecil setiap hari membangun benteng</tspan><tspan x="28" dy="18">keberhasilan di masa depan.&quot;</tspan></text>
  </g>
  <rect width="460" height="1487" rx="18" fill="none" stroke="url(#gB)" stroke-width="3.5"/>
</svg>